<svg width="35" height="36" viewBox="0 0 35 36" fill="none" xmlns="http://www.w3.org/2000/svg">
<g id="ph:arrow-up-bold">
<path id="Vector" d="M24.685 17.326C24.5855 17.4267 24.4672 17.5065 24.337 17.561C24.2068 17.6155 24.0672 17.6436 23.9263 17.6436C23.7853 17.6436 23.6457 17.6155 23.5155 17.561C23.3853 17.5065 23.2671 17.4267 23.1676 17.326L18.5716 12.6928L18.5716 25.9202C18.5716 26.2066 18.4588 26.4812 18.2579 26.6837C18.057 26.8862 17.7846 27 17.5005 27C17.2164 27 16.944 26.8862 16.7431 26.6837C16.5422 26.4812 16.4294 26.2066 16.4294 25.9202L16.4294 12.6928L11.8317 17.326C11.6304 17.5289 11.3575 17.6428 11.073 17.6428C10.7884 17.6428 10.5155 17.5289 10.3143 17.326C10.113 17.1232 10 16.848 10 16.5612C10 16.2743 10.113 15.9992 10.3143 15.7963L16.7409 9.31759C16.8404 9.21692 16.9587 9.13705 17.0889 9.08255C17.2191 9.02805 17.3586 9 17.4996 9C17.6406 9 17.7802 9.02805 17.9104 9.08255C18.0406 9.13705 18.1588 9.21692 18.2583 9.31759L24.685 15.7963C24.7848 15.8966 24.864 16.0158 24.9181 16.1471C24.9722 16.2783 25 16.419 25 16.5612C25 16.7033 24.9722 16.844 24.9181 16.9752C24.864 17.1065 24.7848 17.2257 24.685 17.326Z" fill="#A26AEA"/>
</g>
</svg>
