<svg width="184" height="60" viewBox="0 0 184 60" fill="none" xmlns="http://www.w3.org/2000/svg">
<path fill-rule="evenodd" clip-rule="evenodd" d="M9.25 41.25H18.25V34.5L25.75 41.25V50.25H1V9L9.25 17.25V41.25ZM33.2499 18H24.2499V24.75L16.7499 18V9H41.4999V50.25L33.2499 42V18Z" fill="url(#paint0_linear_408_140)"/>
<path d="M18.25 41.25V42H19V41.25H18.25ZM9.25 41.25H8.5V42H9.25V41.25ZM18.25 34.5L18.7517 33.9425L17.5 32.816V34.5H18.25ZM25.75 41.25H26.5V40.916L26.2517 40.6925L25.75 41.25ZM25.75 50.25V51H26.5V50.25H25.75ZM1 50.25H0.25V51H1V50.25ZM1 9L1.53033 8.46967L0.25 7.18934V9H1ZM9.25 17.25H10V16.9393L9.78033 16.7197L9.25 17.25ZM24.2499 18V17.25H23.4999V18H24.2499ZM33.2499 18H33.9999V17.25H33.2499V18ZM24.2499 24.75L23.7482 25.3075L24.9999 26.434V24.75H24.2499ZM16.7499 18H15.9999V18.334L16.2482 18.5575L16.7499 18ZM16.7499 9V8.25H15.9999V9H16.7499ZM41.4999 9H42.2499V8.25H41.4999V9ZM41.4999 50.25L40.9696 50.7803L42.2499 52.0607V50.25H41.4999ZM33.2499 42H32.4999V42.3107L32.7196 42.5303L33.2499 42ZM18.25 40.5H9.25V42H18.25V40.5ZM17.5 34.5V41.25H19V34.5H17.5ZM26.2517 40.6925L18.7517 33.9425L17.7483 35.0575L25.2483 41.8075L26.2517 40.6925ZM26.5 50.25V41.25H25V50.25H26.5ZM1 51H25.75V49.5H1V51ZM0.25 9V50.25H1.75V9H0.25ZM9.78033 16.7197L1.53033 8.46967L0.46967 9.53033L8.71967 17.7803L9.78033 16.7197ZM10 41.25V17.25H8.5V41.25H10ZM24.2499 18.75H33.2499V17.25H24.2499V18.75ZM24.9999 24.75V18H23.4999V24.75H24.9999ZM16.2482 18.5575L23.7482 25.3075L24.7517 24.1925L17.2517 17.4425L16.2482 18.5575ZM15.9999 9V18H17.4999V9H15.9999ZM41.4999 8.25H16.7499V9.75H41.4999V8.25ZM42.2499 50.25V9H40.7499V50.25H42.2499ZM32.7196 42.5303L40.9696 50.7803L42.0303 49.7197L33.7803 41.4697L32.7196 42.5303ZM32.4999 18V42H33.9999V18H32.4999Z" fill="url(#paint1_linear_408_140)"/>
<path d="M50.3365 48.3465V44.238C53.0095 44.238 54.9565 43.6935 56.1775 42.6045C57.4315 41.5155 58.0585 39.618 58.0585 36.912V14.34H62.365V36.912C62.365 39.156 62.002 41.1525 61.276 42.9015C60.583 44.6175 59.362 45.954 57.613 46.911C55.897 47.868 53.4715 48.3465 50.3365 48.3465ZM75.6449 17.508H71.0909V12.954H75.6449V17.508ZM75.3974 48H71.3384V23.4975H75.3974V48ZM103.552 34.239V37.209C103.552 40.707 102.645 43.4625 100.83 45.4755C99.048 47.4885 96.4905 48.495 93.1575 48.495C89.8575 48.495 87.3 47.4885 85.485 45.4755C83.67 43.4625 82.7625 40.707 82.7625 37.209V34.239C82.7625 30.807 83.6535 28.0845 85.4355 26.0715C87.2505 24.0255 89.8245 23.0025 93.1575 23.0025C96.4905 23.0025 99.048 24.0255 100.83 26.0715C102.645 28.0845 103.552 30.807 103.552 34.239ZM99.345 34.239C99.345 31.896 98.817 30.0645 97.761 28.7445C96.705 27.3915 95.1705 26.715 93.1575 26.715C91.1775 26.715 89.643 27.3915 88.554 28.7445C87.498 30.0645 86.97 31.896 86.97 34.239V37.209C86.97 39.651 87.498 41.532 88.554 42.852C89.643 44.172 91.1775 44.832 93.1575 44.832C95.1705 44.832 96.705 44.172 97.761 42.852C98.817 41.532 99.345 39.651 99.345 37.209V34.239ZM122.71 26.814C121.786 26.814 120.697 27.045 119.443 27.507C118.222 27.969 116.737 28.9095 114.988 30.3285V48H110.929V23.4975H114.79V26.913C116.539 25.428 118.123 24.405 119.542 23.844C120.994 23.283 122.38 23.0025 123.7 23.0025C125.977 23.0025 127.709 23.7285 128.897 25.1805C130.118 26.5995 130.729 28.629 130.729 31.269V48H126.67V31.863C126.67 28.497 125.35 26.814 122.71 26.814ZM156.978 46.5645C155.493 47.2905 154.008 47.7855 152.523 48.0495C151.038 48.3465 149.669 48.495 148.415 48.495C144.884 48.495 142.244 47.4885 140.495 45.4755C138.779 43.4625 137.921 40.707 137.921 37.209V34.239C137.921 30.84 138.779 28.1175 140.495 26.0715C142.244 24.0255 144.702 23.0025 147.87 23.0025C149.553 23.0025 151.088 23.349 152.474 24.042C153.893 24.702 155.015 25.725 155.84 27.111C156.698 28.464 157.127 30.213 157.127 32.358C157.127 33.744 156.929 35.328 156.533 37.11H141.93V37.209C141.93 39.717 142.442 41.6145 143.465 42.9015C144.521 44.1885 146.204 44.832 148.514 44.832C149.57 44.832 150.725 44.7 151.979 44.436C153.266 44.172 154.52 43.7595 155.741 43.1985L156.978 46.5645ZM147.87 26.5665C145.956 26.5665 144.504 27.1935 143.514 28.4475C142.557 29.6685 142.029 31.401 141.93 33.645H153.018C153.117 33.051 153.167 32.49 153.167 31.962C153.167 30.114 152.639 28.761 151.583 27.903C150.56 27.012 149.322 26.5665 147.87 26.5665ZM177.12 48L171.031 38.4465L165.19 48H160.884L169.002 35.328L161.478 23.4975H165.982L171.378 32.061L176.674 23.4975H180.931L173.457 35.229L181.575 48H177.12Z" fill="url(#paint2_linear_408_140)"/>
<defs>
<linearGradient id="paint0_linear_408_140" x1="41.5" y1="9" x2="0.256943" y2="49.4932" gradientUnits="userSpaceOnUse">
<stop stop-color="#6675F7"/>
<stop offset="1" stop-color="#57007B"/>
</linearGradient>
<linearGradient id="paint1_linear_408_140" x1="41.5" y1="9" x2="0.256943" y2="49.4932" gradientUnits="userSpaceOnUse">
<stop stop-color="#6675F7"/>
<stop offset="1" stop-color="#57007B"/>
</linearGradient>
<linearGradient id="paint2_linear_408_140" x1="183" y1="0" x2="139.481" y2="98.8388" gradientUnits="userSpaceOnUse">
<stop stop-color="#6675F7"/>
<stop offset="1" stop-color="#57007B"/>
</linearGradient>
</defs>
</svg>
